<svg width="622" height="46" viewBox="0 0 622 46" fill="none" xmlns="http://www.w3.org/2000/svg">
<path d="M452.144 45.3201V9.66369H433.664V0.00195312H463.844V45.3201H452.144Z" fill="#333333"/>
<path d="M488.695 45.3201C499.839 45.3201 508.438 39.9152 508.438 27.1651V0.833477H496.744V25.2249C496.744 31.8771 494.749 35.4111 488.695 35.4111C482.711 35.4111 480.647 31.8771 480.647 25.2249V0.833477H469.022V27.1651C469.022 39.9152 477.552 45.3201 488.695 45.3201Z" fill="#333333"/>
<path d="M526.402 35.2032V10.1188H531.011C538.578 10.1188 543.049 14.6922 543.049 22.5917C543.049 30.6298 538.578 35.2032 531.011 35.2032H526.402ZM514.708 44.4886H531.837C546.213 44.4886 555.087 36.3119 555.087 22.661C555.087 9.01015 546.213 0.833477 531.837 0.833477H514.708V44.4886Z" fill="#333333"/>
<path d="M559.784 0.833477V44.4886H571.478V0.833477H559.784Z" fill="#333333"/>
<path d="M621.117 22.661C621.117 9.21803 611.212 0.00195312 598.623 0.00195312C586.035 0.00195312 576.129 9.21803 576.129 22.661C576.129 36.104 586.035 45.3201 598.623 45.3201C611.212 45.3201 621.117 36.104 621.117 22.661ZM609.079 22.661C609.079 30.0755 605.021 34.926 598.623 34.926C592.226 34.926 588.167 30.0755 588.167 22.661C588.167 15.2466 592.226 10.396 598.623 10.396C605.021 10.396 609.079 15.2466 609.079 22.661Z" fill="#333333"/>
<path d="M393.285 29.0361C393.285 39.5687 401.73 45.3201 413.568 45.3201C423.744 45.3201 431.774 40.6774 431.774 31.392C431.774 24.2548 427.62 19.4735 418.483 17.8798L410.245 16.4246C407.545 15.9395 405.884 15.1773 405.884 13.1678C405.884 10.7425 408.099 9.21803 411.975 9.21803C416.475 9.21803 419.729 11.2968 420.075 15.8009L430.874 15.5931C430.666 5.89192 424.159 0.00195312 412.114 0.00195312C401.245 0.00195312 394.323 5.33758 394.323 14.2072C394.323 21.8295 399.307 25.8485 406.437 27.1651L414.398 28.551C417.721 29.1746 420.282 29.5904 420.282 32.1543C420.282 34.5796 417.652 36.0347 413.568 36.0347C408.722 36.0347 404.499 34.1638 404.084 28.6896L393.285 29.0361Z" fill="#333333"/>
<path d="M11.7411 28.6862C12.1569 34.1611 16.3611 36.036 21.2699 36.036C25.3816 36.036 28.0266 34.5752 28.0266 32.1598C28.0266 29.7443 25.4509 29.1807 22.113 28.5481L14.1089 27.1679C6.93634 25.8451 1.9352 21.8539 1.9352 14.2051C1.9352 5.33696 8.88829 0 19.8146 0C31.9189 0 38.4562 5.88906 38.6757 15.5853L27.8187 15.8038C27.4491 11.295 24.192 9.20165 19.676 9.20165C15.7721 9.20165 13.5891 10.7429 13.5891 13.1699C13.5891 15.1712 15.2523 15.9419 17.9666 16.425L26.2479 17.8742C35.4879 19.473 39.6112 24.2579 39.6112 31.3891C39.6112 40.6828 31.5262 45.3181 21.3045 45.3181C9.37339 45.3181 0.884155 39.5671 0.884155 29.0427L11.7411 28.6862Z" fill="#333333"/>
<path d="M99.0598 45.3181C86.3549 45.3181 76.3064 36.1165 76.3064 22.6591C76.3064 9.20166 86.2625 0 99.0598 0C111.857 0 121.813 9.20166 121.813 22.6591C121.813 36.1165 111.765 45.3181 99.0598 45.3181ZM99.0598 10.3519C92.5919 10.3519 88.4801 15.2057 88.4801 22.6131C88.4801 30.0204 92.5341 34.9203 99.0598 34.9203C105.586 34.9203 109.64 30.0779 109.64 22.6591C109.64 15.2402 105.47 10.3519 99.0598 10.3519Z" fill="#333333"/>
<path d="M154.788 45.3181C153.367 42.4886 145.998 28.065 145.998 28.065H138.132V45.3181H126.513V0H148.643C159.985 0 165.621 5.33696 165.621 13.86C165.621 20.2321 163.82 26.9033 156.289 27.996C156.289 27.996 164.778 42.0631 166.765 45.2491L154.788 45.3181ZM146.552 20.1056C151.565 20.1056 154.071 18.8634 154.071 14.8377C154.071 11.3065 151.565 9.4317 146.552 9.4317H138.132V20.1056H146.552Z" fill="#333333"/>
<path d="M197.856 0H210.561L193.767 27.1104V45.3181H182.286V27.1104L165.435 0H178.579L188.466 15.7233L197.856 0Z" fill="#333333"/>
<path d="M233.743 45.3181V9.66174H215.355V0H245.501V45.3181H233.743Z" fill="#333333"/>
<path d="M312.145 0V35.6564H330.544V45.3181H300.387V0H312.145Z" fill="#333333"/>
<path d="M59.7882 45.3181V9.66174H41.3082V0H71.4883V45.3181H59.7882Z" fill="#333333"/>
<path d="M279.562 0L297.025 45.3181H284.424L281.156 36.036H264.039L260.759 45.3181H248.862L266.337 0H279.562ZM267.446 27.2369H277.749L272.736 14.3431H272.459L267.446 27.2369Z" fill="#333333"/>
<path d="M369.812 45.3181H335.301V0H369.189V9.70774H346.92V17.6672H364.107V27.2369H346.92V35.6564H369.812V45.3181Z" fill="#333333"/>
</svg>
